<?xml version="1.0" encoding="UTF-8" standalone="no"?><svg xmlns="http://www.w3.org/2000/svg" xmlns:xlink="http://www.w3.org/1999/xlink" contentStyleType="text/css" height="821px" preserveAspectRatio="none" style="width:551px;height:821px;background:#FFFFFF;" version="1.1" viewBox="0 0 551 821" width="551px" zoomAndPan="magnify"><defs/><g><rect fill="#FF6347" height="45.2188" id="_title" rx="7.5" ry="7.5" style="stroke:#FF0000;stroke-width:2.0;" width="161" x="193.75" y="15"/><text fill="#000000" font-family="sans-serif" font-size="14" font-weight="bold" lengthAdjust="spacing" textLength="96" x="226.25" y="34.5332">Visualizations</text><text fill="#000000" font-family="sans-serif" font-size="14" font-weight="bold" lengthAdjust="spacing" textLength="147" x="202.75" y="52.1426">A generic Dashboard</text><path d="M163.5,66.2188 L163.5,75.3945 L143.5,79.3945 L163.5,83.3945 L163.5,92.5703 A0,0 0 0 0 163.5,92.5703 L539.5,92.5703 A0,0 0 0 0 539.5,92.5703 L539.5,76.2188 L529.5,66.2188 L163.5,66.2188 A0,0 0 0 0 163.5,66.2188 " fill="#FEFFDD" style="stroke:#181818;stroke-width:0.5;"/><path d="M529.5,66.2188 L529.5,76.2188 L539.5,76.2188 L529.5,66.2188 " fill="#FEFFDD" style="stroke:#181818;stroke-width:0.5;"/><text fill="#000000" font-family="sans-serif" font-size="13" lengthAdjust="spacing" textLength="355" x="169.5" y="84.7139">Objective: Standardization, automation for rinse &amp; repeat use.</text><ellipse cx="133.5" cy="79.3945" fill="#222222" rx="10" ry="10" style="stroke:#222222;stroke-width:1.0;"/><rect fill="none" height="99.7969" style="stroke:#000000;stroke-width:1.5;" width="185" x="41" y="102.5703"/><path d="M117,102.5703 L117,113.1797 L107,123.1797 L41,123.1797 " fill="none" style="stroke:#000000;stroke-width:1.5;"/><text fill="#000000" font-family="sans-serif" font-size="14" lengthAdjust="spacing" textLength="66" x="44" y="118.1035">Load Data</text><rect fill="#F1F1F1" height="50.1875" rx="12.5" ry="12.5" style="stroke:#181818;stroke-width:0.5;" width="165" x="51" y="140.1797"/><text fill="#000000" font-family="sans-serif" font-size="12" lengthAdjust="spacing" textLength="145" x="61" y="162.6367">Prepare and Load Data as</text><text fill="#000000" font-family="sans-serif" font-size="12" lengthAdjust="spacing" textLength="129" x="64" y="177.7305">Pandas DataFrame (df)</text><rect fill="none" height="280.9063" style="stroke:#000000;stroke-width:1.5;" width="511" x="11" y="212.3672"/><path d="M105,212.3672 L105,222.9766 L95,232.9766 L11,232.9766 " fill="none" style="stroke:#000000;stroke-width:1.5;"/><text fill="#000000" font-family="sans-serif" font-size="14" lengthAdjust="spacing" textLength="84" x="14" y="227.9004">HTML Layout</text><path d="M226,242.9766 L226,268.5039 L206,272.5039 L226,276.5039 L226,302.0313 A0,0 0 0 0 226,302.0313 L449,302.0313 A0,0 0 0 0 449,302.0313 L449,252.9766 L439,242.9766 L226,242.9766 A0,0 0 0 0 226,242.9766 " fill="#FEFFDD" style="stroke:#181818;stroke-width:0.5;"/><path d="M439,242.9766 L439,252.9766 L449,252.9766 L439,242.9766 " fill="#FEFFDD" style="stroke:#181818;stroke-width:0.5;"/><text fill="#000000" font-family="sans-serif" font-size="13" lengthAdjust="spacing" textLength="148" x="232" y="261.4717">Provide in order of display</text><text fill="#000000" font-family="sans-serif" font-size="13" lengthAdjust="spacing" textLength="202" x="232" y="277.8232">Default is 1 dropdown with 2 charts</text><text fill="#000000" font-family="sans-serif" font-size="13" lengthAdjust="spacing" textLength="175" x="232" y="294.1748">i.e. ['dropdown', 'graph', 'graph]</text><rect fill="#F1F1F1" height="35.0938" rx="12.5" ry="12.5" style="stroke:#181818;stroke-width:0.5;" width="145" x="61" y="254.957"/><text fill="#000000" font-family="sans-serif" font-size="12" lengthAdjust="spacing" textLength="125" x="71" y="277.4141">Define Layout sections</text><path d="M266,312.0313 L266,337.5586 L246,341.5586 L266,345.5586 L266,371.0859 A0,0 0 0 0 266,371.0859 L512,371.0859 A0,0 0 0 0 512,371.0859 L512,322.0313 L502,312.0313 L266,312.0313 A0,0 0 0 0 266,312.0313 " fill="#FEFFDD" style="stroke:#181818;stroke-width:0.5;"/><path d="M502,312.0313 L502,322.0313 L512,322.0313 L502,312.0313 " fill="#FEFFDD" style="stroke:#181818;stroke-width:0.5;"/><text fill="#000000" font-family="sans-serif" font-size="13" lengthAdjust="spacing" textLength="132" x="272" y="330.5264">text (default is generic)</text><text fill="#000000" font-family="sans-serif" font-size="13" lengthAdjust="spacing" textLength="174" x="272" y="346.8779">select type (single or multiple)</text><text fill="#000000" font-family="sans-serif" font-size="13" lengthAdjust="spacing" textLength="225" x="272" y="363.2295">Options &amp; start_value (data dependent)</text><rect fill="#F1F1F1" height="35.0938" rx="12.5" ry="12.5" style="stroke:#181818;stroke-width:0.5;" width="225" x="21" y="324.0117"/><text fill="#000000" font-family="sans-serif" font-size="12" lengthAdjust="spacing" textLength="205" x="31" y="346.4688">Configure dropdown (text &amp; selection)</text><path d="M262,395.457 L262,404.6328 L242,408.6328 L262,412.6328 L262,421.8086 A0,0 0 0 0 262,421.8086 L487,421.8086 A0,0 0 0 0 487,421.8086 L487,405.457 L477,395.457 L262,395.457 A0,0 0 0 0 262,395.457 " fill="#FEFFDD" style="stroke:#181818;stroke-width:0.5;"/><path d="M477,395.457 L477,405.457 L487,405.457 L477,395.457 " fill="#FEFFDD" style="stroke:#181818;stroke-width:0.5;"/><text fill="#000000" font-family="sans-serif" font-size="13" lengthAdjust="spacing" textLength="204" x="268" y="413.9521">This is done using update functions</text><rect fill="#F1F1F1" height="35.0938" rx="12.5" ry="12.5" style="stroke:#181818;stroke-width:0.5;" width="217" x="25" y="391.0859"/><text fill="#000000" font-family="sans-serif" font-size="12" lengthAdjust="spacing" textLength="197" x="35" y="413.543">Inject Figures into each HTML layout</text><path d="M258,450.5508 L258,459.7266 L238,463.7266 L258,467.7266 L258,476.9023 A0,0 0 0 0 258,476.9023 L490,476.9023 A0,0 0 0 0 490,476.9023 L490,460.5508 L480,450.5508 L258,450.5508 A0,0 0 0 0 258,450.5508 " fill="#FEFFDD" style="stroke:#181818;stroke-width:0.5;"/><path d="M480,450.5508 L480,460.5508 L490,460.5508 L480,450.5508 " fill="#FEFFDD" style="stroke:#181818;stroke-width:0.5;"/><text fill="#000000" font-family="sans-serif" font-size="13" lengthAdjust="spacing" textLength="211" x="264" y="469.0459">This is done using update functions?</text><rect fill="#F1F1F1" height="35.0938" rx="12.5" ry="12.5" style="stroke:#181818;stroke-width:0.5;" width="209" x="29" y="446.1797"/><text fill="#000000" font-family="sans-serif" font-size="12" lengthAdjust="spacing" textLength="189" x="39" y="468.6367">Inject tables into each HTML layout</text><rect fill="none" height="239.1641" style="stroke:#000000;stroke-width:1.5;" width="407" x="53.5" y="503.2734"/><path d="M160.5,503.2734 L160.5,513.8828 L150.5,523.8828 L53.5,523.8828 " fill="none" style="stroke:#000000;stroke-width:1.5;"/><text fill="#000000" font-family="sans-serif" font-size="14" lengthAdjust="spacing" textLength="97" x="56.5" y="518.8066">Prepare Charts</text><rect fill="#F1F1F1" height="35.0938" rx="12.5" ry="12.5" style="stroke:#181818;stroke-width:0.5;" width="140" x="63.5" y="540.8828"/><text fill="#000000" font-family="sans-serif" font-size="12" lengthAdjust="spacing" textLength="120" x="73.5" y="563.3398">Plan &amp; Prepare charts</text><path d="M208,585.9766 L208,611.5039 L188,615.5039 L208,619.5039 L208,645.0313 A0,0 0 0 0 208,645.0313 L447,645.0313 A0,0 0 0 0 447,645.0313 L447,595.9766 L437,585.9766 L208,585.9766 A0,0 0 0 0 208,585.9766 " fill="#FEFFDD" style="stroke:#181818;stroke-width:0.5;"/><path d="M437,585.9766 L437,595.9766 L447,595.9766 L437,585.9766 " fill="#FEFFDD" style="stroke:#181818;stroke-width:0.5;"/><text fill="#000000" font-family="sans-serif" font-size="13" lengthAdjust="spacing" textLength="191" x="214" y="604.4717">Each chart data has multiple dfs.</text><text fill="#000000" font-family="sans-serif" font-size="13" lengthAdjust="spacing" textLength="218" x="214" y="620.8232">Multiple charts will have dfs redefined.</text><text fill="#000000" font-family="sans-serif" font-size="13" lengthAdjust="spacing" textLength="147" x="214" y="637.1748">No filtering recommended</text><rect fill="#F1F1F1" height="35.0938" rx="12.5" ry="12.5" style="stroke:#181818;stroke-width:0.5;" width="109" x="79" y="597.957"/><text fill="#000000" font-family="sans-serif" font-size="12" lengthAdjust="spacing" textLength="89" x="89" y="620.4141">Single Selection</text><path d="M211.5,655.0313 L211.5,688.7344 L191.5,692.7344 L211.5,696.7344 L211.5,730.4375 A0,0 0 0 0 211.5,730.4375 L450.5,730.4375 A0,0 0 0 0 450.5,730.4375 L450.5,665.0313 L440.5,655.0313 L211.5,655.0313 A0,0 0 0 0 211.5,655.0313 " fill="#FEFFDD" style="stroke:#181818;stroke-width:0.5;"/><path d="M440.5,655.0313 L440.5,665.0313 L450.5,665.0313 L440.5,655.0313 " fill="#FEFFDD" style="stroke:#181818;stroke-width:0.5;"/><text fill="#000000" font-family="sans-serif" font-size="13" lengthAdjust="spacing" textLength="191" x="217.5" y="673.5264">Each chart data has multiple dfs.</text><text fill="#000000" font-family="sans-serif" font-size="13" lengthAdjust="spacing" textLength="218" x="217.5" y="689.8779">Multiple charts will have dfs redefined.</text><text fill="#000000" font-family="sans-serif" font-size="13" lengthAdjust="spacing" textLength="151" x="217.5" y="706.2295">No filtering recommended.</text><text fill="#000000" font-family="sans-serif" font-size="13" lengthAdjust="spacing" textLength="138" x="217.5" y="722.5811">Utilize dictionary of dfs?</text><rect fill="#F1F1F1" height="35.0938" rx="12.5" ry="12.5" style="stroke:#181818;stroke-width:0.5;" width="116" x="75.5" y="675.1875"/><text fill="#000000" font-family="sans-serif" font-size="12" lengthAdjust="spacing" textLength="96" x="85.5" y="697.6445">Multiple Selection</text><ellipse cx="133.5" cy="773.4375" fill="none" rx="11" ry="11" style="stroke:#222222;stroke-width:1.0;"/><ellipse cx="133.5" cy="773.4375" fill="#222222" rx="6" ry="6" style="stroke:#111111;stroke-width:1.0;"/><line style="stroke:#181818;stroke-width:1.0;" x1="133.5" x2="133.5" y1="89.3945" y2="140.1797"/><polygon fill="#181818" points="129.5,130.1797,133.5,140.1797,137.5,130.1797,133.5,134.1797" style="stroke:#181818;stroke-width:1.0;"/><line style="stroke:#181818;stroke-width:1.0;" x1="133.5" x2="133.5" y1="290.0508" y2="324.0117"/><polygon fill="#181818" points="129.5,314.0117,133.5,324.0117,137.5,314.0117,133.5,318.0117" style="stroke:#181818;stroke-width:1.0;"/><line style="stroke:#181818;stroke-width:1.0;" x1="133.5" x2="133.5" y1="359.1055" y2="391.0859"/><polygon fill="#181818" points="129.5,381.0859,133.5,391.0859,137.5,381.0859,133.5,385.0859" style="stroke:#181818;stroke-width:1.0;"/><line style="stroke:#181818;stroke-width:1.0;" x1="133.5" x2="133.5" y1="426.1797" y2="446.1797"/><polygon fill="#181818" points="129.5,436.1797,133.5,446.1797,137.5,436.1797,133.5,440.1797" style="stroke:#181818;stroke-width:1.0;"/><line style="stroke:#181818;stroke-width:1.0;" x1="133.5" x2="133.5" y1="190.3672" y2="254.957"/><polygon fill="#181818" points="129.5,244.957,133.5,254.957,137.5,244.957,133.5,248.957" style="stroke:#181818;stroke-width:1.0;"/><line style="stroke:#181818;stroke-width:1.0;" x1="133.5" x2="133.5" y1="575.9766" y2="597.957"/><polygon fill="#181818" points="129.5,587.957,133.5,597.957,137.5,587.957,133.5,591.957" style="stroke:#181818;stroke-width:1.0;"/><line style="stroke:#181818;stroke-width:1.0;" x1="133.5" x2="133.5" y1="633.0508" y2="675.1875"/><polygon fill="#181818" points="129.5,665.1875,133.5,675.1875,137.5,665.1875,133.5,669.1875" style="stroke:#181818;stroke-width:1.0;"/><line style="stroke:#181818;stroke-width:1.0;" x1="133.5" x2="133.5" y1="481.2734" y2="540.8828"/><polygon fill="#181818" points="129.5,530.8828,133.5,540.8828,137.5,530.8828,133.5,534.8828" style="stroke:#181818;stroke-width:1.0;"/><line style="stroke:#181818;stroke-width:1.0;" x1="133.5" x2="133.5" y1="710.2813" y2="762.4375"/><polygon fill="#181818" points="129.5,752.4375,133.5,762.4375,137.5,752.4375,133.5,756.4375" style="stroke:#181818;stroke-width:1.0;"/><rect fill="none" height="25.1563" style="stroke:none;stroke-width:1.0;" width="149" x="199.75" y="783.4375"/><text fill="#888888" font-family="sans-serif" font-size="10" lengthAdjust="spacing" textLength="96" x="226.25" y="793.8184">2022.11.03 at 22:56</text><text fill="#888888" font-family="sans-serif" font-size="10" lengthAdjust="spacing" textLength="149" x="199.75" y="806.3965">visualization_architecture.puml</text><!--MD5=[c1cd40909a562cd6ca43e0413d047ee5]
@startuml visualization_architecture
skinparam titleBorderRoundCorner 15
skinparam titleBorderThickness 2
skinparam titleBorderColor red
skinparam titleBackgroundColor Tomato

title Visualizations\n A generic Dashboard

start

    note right
        Objective: Standardization, automation for rinse & repeat use.
    end note

    partition "Load Data" {

        :Prepare and Load Data as 
         Pandas DataFrame (df);

    }

    partition "HTML Layout" {


        :Define Layout sections;
            note right
                Provide in order of display
                Default is 1 dropdown with 2 charts
                i.e. ['dropdown', 'graph', 'graph]
            end note

        :Configure dropdown (text & selection);
            note right
                text (default is generic)
                select type (single or multiple)
                Options & start_value (data dependent)
            end note

        :Inject Figures into each HTML layout;
            note right
                This is done using update functions
            end note

        :Inject tables into each HTML layout;
            note right
                This is done using update functions?
            end note

    }

    partition "Prepare Charts" {
        
        :Plan & Prepare charts;

        :Single Selection;
            note right
                Each chart data has multiple dfs. 
                Multiple charts will have dfs redefined.
                No filtering recommended
            end note

        :Multiple Selection;
            note right
                Each chart data has multiple dfs.
                Multiple charts will have dfs redefined.
                No filtering recommended. 
                Utilize dictionary of dfs?
            end note

    }




stop

footer
%date("yyyy.MM.dd' at 'HH:mm")
%filename()
end footer

@enduml

@startuml visualization_architecture
skinparam titleBorderRoundCorner 15
skinparam titleBorderThickness 2
skinparam titleBorderColor red
skinparam titleBackgroundColor Tomato

title Visualizations\n A generic Dashboard

start

    note right
        Objective: Standardization, automation for rinse & repeat use.
    end note

    partition "Load Data" {

        :Prepare and Load Data as 
         Pandas DataFrame (df);

    }

    partition "HTML Layout" {


        :Define Layout sections;
            note right
                Provide in order of display
                Default is 1 dropdown with 2 charts
                i.e. ['dropdown', 'graph', 'graph]
            end note

        :Configure dropdown (text & selection);
            note right
                text (default is generic)
                select type (single or multiple)
                Options & start_value (data dependent)
            end note

        :Inject Figures into each HTML layout;
            note right
                This is done using update functions
            end note

        :Inject tables into each HTML layout;
            note right
                This is done using update functions?
            end note

    }

    partition "Prepare Charts" {
        
        :Plan & Prepare charts;

        :Single Selection;
            note right
                Each chart data has multiple dfs. 
                Multiple charts will have dfs redefined.
                No filtering recommended
            end note

        :Multiple Selection;
            note right
                Each chart data has multiple dfs.
                Multiple charts will have dfs redefined.
                No filtering recommended. 
                Utilize dictionary of dfs?
            end note

    }




stop

footer
2022.11.03 at 22:56
visualization_architecture.puml
end footer

@enduml

PlantUML version 1.2022.8(Sun Sep 25 04:00:33 CDT 2022)
(GPL source distribution)
Java Runtime: OpenJDK Runtime Environment
JVM: OpenJDK 64-Bit Server VM
Default Encoding: UTF-8
Language: en
Country: US
--></g></svg>