<?xml version="1.0" encoding="UTF-8" standalone="no"?><svg xmlns="http://www.w3.org/2000/svg" xmlns:xlink="http://www.w3.org/1999/xlink" contentStyleType="text/css" height="939px" preserveAspectRatio="none" style="width:533px;height:939px;background:#FFFFFF;" version="1.1" viewBox="0 0 533 939" width="533px" zoomAndPan="magnify"><defs/><g><rect fill="#FF6347" height="45.2188" id="_title" rx="7.5" ry="7.5" style="stroke:#FF0000;stroke-width:2.0;" width="161" x="184.5" y="15"/><text fill="#000000" font-family="sans-serif" font-size="14" font-weight="bold" lengthAdjust="spacing" textLength="96" x="217" y="34.5332">Visualizations</text><text fill="#000000" font-family="sans-serif" font-size="14" font-weight="bold" lengthAdjust="spacing" textLength="147" x="193.5" y="52.1426">A generic Dashboard</text><path d="M163.5,66.2188 L163.5,83.5703 L143.5,87.5703 L163.5,91.5703 L163.5,108.9219 A0,0 0 0 0 163.5,108.9219 L517.5,108.9219 A0,0 0 0 0 517.5,108.9219 L517.5,76.2188 L507.5,66.2188 L163.5,66.2188 A0,0 0 0 0 163.5,66.2188 " fill="#FEFFDD" style="stroke:#181818;stroke-width:0.5;"/><path d="M507.5,66.2188 L507.5,76.2188 L517.5,76.2188 L507.5,66.2188 " fill="#FEFFDD" style="stroke:#181818;stroke-width:0.5;"/><text fill="#000000" font-family="sans-serif" font-size="13" lengthAdjust="spacing" textLength="333" x="169.5" y="84.7139">Objective: Standardize &amp; automate for rinse &amp; repeat use.</text><text fill="#000000" font-family="sans-serif" font-size="13" lengthAdjust="spacing" textLength="280" x="169.5" y="101.0654">Using for 1st time? Start with 1 chart and 1 table</text><ellipse cx="133.5" cy="87.5703" fill="#222222" rx="10" ry="10" style="stroke:#222222;stroke-width:1.0;"/><rect fill="none" height="99.7969" style="stroke:#000000;stroke-width:1.5;" width="185" x="41" y="118.9219"/><path d="M117,118.9219 L117,129.5313 L107,139.5313 L41,139.5313 " fill="none" style="stroke:#000000;stroke-width:1.5;"/><text fill="#000000" font-family="sans-serif" font-size="14" lengthAdjust="spacing" textLength="66" x="44" y="134.4551">Load Data</text><rect fill="#F1F1F1" height="50.1875" rx="12.5" ry="12.5" style="stroke:#181818;stroke-width:0.5;" width="165" x="51" y="156.5313"/><text fill="#000000" font-family="sans-serif" font-size="12" lengthAdjust="spacing" textLength="145" x="61" y="178.9883">Prepare and Load Data as</text><text fill="#000000" font-family="sans-serif" font-size="12" lengthAdjust="spacing" textLength="129" x="64" y="194.082">Pandas DataFrame (df)</text><rect fill="none" height="239.1641" style="stroke:#000000;stroke-width:1.5;" width="407" x="53.5" y="228.7188"/><path d="M160.5,228.7188 L160.5,239.3281 L150.5,249.3281 L53.5,249.3281 " fill="none" style="stroke:#000000;stroke-width:1.5;"/><text fill="#000000" font-family="sans-serif" font-size="14" lengthAdjust="spacing" textLength="97" x="56.5" y="244.252">Prepare Charts</text><rect fill="#F1F1F1" height="35.0938" rx="12.5" ry="12.5" style="stroke:#181818;stroke-width:0.5;" width="140" x="63.5" y="266.3281"/><text fill="#000000" font-family="sans-serif" font-size="12" lengthAdjust="spacing" textLength="120" x="73.5" y="288.7852">Plan &amp; Prepare charts</text><path d="M208,311.4219 L208,336.9492 L188,340.9492 L208,344.9492 L208,370.4766 A0,0 0 0 0 208,370.4766 L447,370.4766 A0,0 0 0 0 447,370.4766 L447,321.4219 L437,311.4219 L208,311.4219 A0,0 0 0 0 208,311.4219 " fill="#FEFFDD" style="stroke:#181818;stroke-width:0.5;"/><path d="M437,311.4219 L437,321.4219 L447,321.4219 L437,311.4219 " fill="#FEFFDD" style="stroke:#181818;stroke-width:0.5;"/><text fill="#000000" font-family="sans-serif" font-size="13" lengthAdjust="spacing" textLength="191" x="214" y="329.917">Each chart data has multiple dfs.</text><text fill="#000000" font-family="sans-serif" font-size="13" lengthAdjust="spacing" textLength="218" x="214" y="346.2686">Multiple charts will have dfs redefined.</text><text fill="#000000" font-family="sans-serif" font-size="13" lengthAdjust="spacing" textLength="147" x="214" y="362.6201">No filtering recommended</text><rect fill="#F1F1F1" height="35.0938" rx="12.5" ry="12.5" style="stroke:#181818;stroke-width:0.5;" width="109" x="79" y="323.4023"/><text fill="#000000" font-family="sans-serif" font-size="12" lengthAdjust="spacing" textLength="89" x="89" y="345.8594">Single Selection</text><path d="M211.5,380.4766 L211.5,414.1797 L191.5,418.1797 L211.5,422.1797 L211.5,455.8828 A0,0 0 0 0 211.5,455.8828 L450.5,455.8828 A0,0 0 0 0 450.5,455.8828 L450.5,390.4766 L440.5,380.4766 L211.5,380.4766 A0,0 0 0 0 211.5,380.4766 " fill="#FEFFDD" style="stroke:#181818;stroke-width:0.5;"/><path d="M440.5,380.4766 L440.5,390.4766 L450.5,390.4766 L440.5,380.4766 " fill="#FEFFDD" style="stroke:#181818;stroke-width:0.5;"/><text fill="#000000" font-family="sans-serif" font-size="13" lengthAdjust="spacing" textLength="191" x="217.5" y="398.9717">Each chart data has multiple dfs.</text><text fill="#000000" font-family="sans-serif" font-size="13" lengthAdjust="spacing" textLength="218" x="217.5" y="415.3232">Multiple charts will have dfs redefined.</text><text fill="#000000" font-family="sans-serif" font-size="13" lengthAdjust="spacing" textLength="151" x="217.5" y="431.6748">No filtering recommended.</text><text fill="#000000" font-family="sans-serif" font-size="13" lengthAdjust="spacing" textLength="138" x="217.5" y="448.0264">Utilize dictionary of dfs?</text><rect fill="#F1F1F1" height="35.0938" rx="12.5" ry="12.5" style="stroke:#181818;stroke-width:0.5;" width="116" x="75.5" y="400.6328"/><text fill="#000000" font-family="sans-serif" font-size="12" lengthAdjust="spacing" textLength="96" x="85.5" y="423.0898">Multiple Selection</text><rect fill="none" height="91.5078" style="stroke:#000000;stroke-width:1.5;" width="357" x="51.5" y="477.8828"/><path d="M159.5,477.8828 L159.5,488.4922 L149.5,498.4922 L51.5,498.4922 " fill="none" style="stroke:#000000;stroke-width:1.5;"/><text fill="#000000" font-family="sans-serif" font-size="14" lengthAdjust="spacing" textLength="98" x="54.5" y="493.416">Prepare Tables</text><path d="M225.5,514.6875 L225.5,532.0391 L205.5,536.0391 L225.5,540.0391 L225.5,557.3906 A0,0 0 0 0 225.5,557.3906 L398.5,557.3906 A0,0 0 0 0 398.5,557.3906 L398.5,524.6875 L388.5,514.6875 L225.5,514.6875 A0,0 0 0 0 225.5,514.6875 " fill="#FEFFDD" style="stroke:#181818;stroke-width:0.5;"/><path d="M388.5,514.6875 L388.5,524.6875 L398.5,524.6875 L388.5,514.6875 " fill="#FEFFDD" style="stroke:#181818;stroke-width:0.5;"/><text fill="#000000" font-family="sans-serif" font-size="13" lengthAdjust="spacing" textLength="93" x="231.5" y="533.1826">A div for a table.</text><text fill="#000000" font-family="sans-serif" font-size="13" lengthAdjust="spacing" textLength="152" x="231.5" y="549.5342">HTML code to be injected.</text><rect fill="#F1F1F1" height="35.0938" rx="12.5" ry="12.5" style="stroke:#181818;stroke-width:0.5;" width="144" x="61.5" y="518.4922"/><text fill="#000000" font-family="sans-serif" font-size="12" lengthAdjust="spacing" textLength="124" x="71.5" y="540.9492">Plan &amp; Prepare Tables</text><rect fill="none" height="280.9063" style="stroke:#000000;stroke-width:1.5;" width="511" x="11" y="579.3906"/><path d="M105,579.3906 L105,590 L95,600 L11,600 " fill="none" style="stroke:#000000;stroke-width:1.5;"/><text fill="#000000" font-family="sans-serif" font-size="14" lengthAdjust="spacing" textLength="84" x="14" y="594.9238">HTML Layout</text><path d="M226,610 L226,635.5273 L206,639.5273 L226,643.5273 L226,669.0547 A0,0 0 0 0 226,669.0547 L449,669.0547 A0,0 0 0 0 449,669.0547 L449,620 L439,610 L226,610 A0,0 0 0 0 226,610 " fill="#FEFFDD" style="stroke:#181818;stroke-width:0.5;"/><path d="M439,610 L439,620 L449,620 L439,610 " fill="#FEFFDD" style="stroke:#181818;stroke-width:0.5;"/><text fill="#000000" font-family="sans-serif" font-size="13" lengthAdjust="spacing" textLength="148" x="232" y="628.4951">Provide in order of display</text><text fill="#000000" font-family="sans-serif" font-size="13" lengthAdjust="spacing" textLength="202" x="232" y="644.8467">Default is 1 dropdown with 2 charts</text><text fill="#000000" font-family="sans-serif" font-size="13" lengthAdjust="spacing" textLength="173" x="232" y="661.1982">i.e. ['dropdown', 'graph', 'table']</text><rect fill="#F1F1F1" height="35.0938" rx="12.5" ry="12.5" style="stroke:#181818;stroke-width:0.5;" width="145" x="61" y="621.9805"/><text fill="#000000" font-family="sans-serif" font-size="12" lengthAdjust="spacing" textLength="125" x="71" y="644.4375">Define Layout sections</text><path d="M266,679.0547 L266,704.582 L246,708.582 L266,712.582 L266,738.1094 A0,0 0 0 0 266,738.1094 L512,738.1094 A0,0 0 0 0 512,738.1094 L512,689.0547 L502,679.0547 L266,679.0547 A0,0 0 0 0 266,679.0547 " fill="#FEFFDD" style="stroke:#181818;stroke-width:0.5;"/><path d="M502,679.0547 L502,689.0547 L512,689.0547 L502,679.0547 " fill="#FEFFDD" style="stroke:#181818;stroke-width:0.5;"/><text fill="#000000" font-family="sans-serif" font-size="13" lengthAdjust="spacing" textLength="132" x="272" y="697.5498">text (default is generic)</text><text fill="#000000" font-family="sans-serif" font-size="13" lengthAdjust="spacing" textLength="174" x="272" y="713.9014">select type (single or multiple)</text><text fill="#000000" font-family="sans-serif" font-size="13" lengthAdjust="spacing" textLength="225" x="272" y="730.2529">Options &amp; start_value (data dependent)</text><rect fill="#F1F1F1" height="35.0938" rx="12.5" ry="12.5" style="stroke:#181818;stroke-width:0.5;" width="225" x="21" y="691.0352"/><text fill="#000000" font-family="sans-serif" font-size="12" lengthAdjust="spacing" textLength="205" x="31" y="713.4922">Configure dropdown (text &amp; selection)</text><path d="M262,762.4805 L262,771.6563 L242,775.6563 L262,779.6563 L262,788.832 A0,0 0 0 0 262,788.832 L487,788.832 A0,0 0 0 0 487,788.832 L487,772.4805 L477,762.4805 L262,762.4805 A0,0 0 0 0 262,762.4805 " fill="#FEFFDD" style="stroke:#181818;stroke-width:0.5;"/><path d="M477,762.4805 L477,772.4805 L487,772.4805 L477,762.4805 " fill="#FEFFDD" style="stroke:#181818;stroke-width:0.5;"/><text fill="#000000" font-family="sans-serif" font-size="13" lengthAdjust="spacing" textLength="204" x="268" y="780.9756">This is done using update functions</text><rect fill="#F1F1F1" height="35.0938" rx="12.5" ry="12.5" style="stroke:#181818;stroke-width:0.5;" width="217" x="25" y="758.1094"/><text fill="#000000" font-family="sans-serif" font-size="12" lengthAdjust="spacing" textLength="197" x="35" y="780.5664">Inject Figures into each HTML layout</text><path d="M258,817.5742 L258,826.75 L238,830.75 L258,834.75 L258,843.9258 A0,0 0 0 0 258,843.9258 L490,843.9258 A0,0 0 0 0 490,843.9258 L490,827.5742 L480,817.5742 L258,817.5742 A0,0 0 0 0 258,817.5742 " fill="#FEFFDD" style="stroke:#181818;stroke-width:0.5;"/><path d="M480,817.5742 L480,827.5742 L490,827.5742 L480,817.5742 " fill="#FEFFDD" style="stroke:#181818;stroke-width:0.5;"/><text fill="#000000" font-family="sans-serif" font-size="13" lengthAdjust="spacing" textLength="211" x="264" y="836.0693">This is done using update functions?</text><rect fill="#F1F1F1" height="35.0938" rx="12.5" ry="12.5" style="stroke:#181818;stroke-width:0.5;" width="209" x="29" y="813.2031"/><text fill="#000000" font-family="sans-serif" font-size="12" lengthAdjust="spacing" textLength="189" x="39" y="835.6602">Inject tables into each HTML layout</text><ellipse cx="133.5" cy="891.2969" fill="none" rx="11" ry="11" style="stroke:#222222;stroke-width:1.0;"/><ellipse cx="133.5" cy="891.2969" fill="#222222" rx="6" ry="6" style="stroke:#111111;stroke-width:1.0;"/><line style="stroke:#181818;stroke-width:1.0;" x1="133.5" x2="133.5" y1="97.5703" y2="156.5313"/><polygon fill="#181818" points="129.5,146.5313,133.5,156.5313,137.5,146.5313,133.5,150.5313" style="stroke:#181818;stroke-width:1.0;"/><line style="stroke:#181818;stroke-width:1.0;" x1="133.5" x2="133.5" y1="301.4219" y2="323.4023"/><polygon fill="#181818" points="129.5,313.4023,133.5,323.4023,137.5,313.4023,133.5,317.4023" style="stroke:#181818;stroke-width:1.0;"/><line style="stroke:#181818;stroke-width:1.0;" x1="133.5" x2="133.5" y1="358.4961" y2="400.6328"/><polygon fill="#181818" points="129.5,390.6328,133.5,400.6328,137.5,390.6328,133.5,394.6328" style="stroke:#181818;stroke-width:1.0;"/><line style="stroke:#181818;stroke-width:1.0;" x1="133.5" x2="133.5" y1="206.7188" y2="266.3281"/><polygon fill="#181818" points="129.5,256.3281,133.5,266.3281,137.5,256.3281,133.5,260.3281" style="stroke:#181818;stroke-width:1.0;"/><line style="stroke:#181818;stroke-width:1.0;" x1="133.5" x2="133.5" y1="435.7266" y2="518.4922"/><polygon fill="#181818" points="129.5,508.4922,133.5,518.4922,137.5,508.4922,133.5,512.4922" style="stroke:#181818;stroke-width:1.0;"/><line style="stroke:#181818;stroke-width:1.0;" x1="133.5" x2="133.5" y1="657.0742" y2="691.0352"/><polygon fill="#181818" points="129.5,681.0352,133.5,691.0352,137.5,681.0352,133.5,685.0352" style="stroke:#181818;stroke-width:1.0;"/><line style="stroke:#181818;stroke-width:1.0;" x1="133.5" x2="133.5" y1="726.1289" y2="758.1094"/><polygon fill="#181818" points="129.5,748.1094,133.5,758.1094,137.5,748.1094,133.5,752.1094" style="stroke:#181818;stroke-width:1.0;"/><line style="stroke:#181818;stroke-width:1.0;" x1="133.5" x2="133.5" y1="793.2031" y2="813.2031"/><polygon fill="#181818" points="129.5,803.2031,133.5,813.2031,137.5,803.2031,133.5,807.2031" style="stroke:#181818;stroke-width:1.0;"/><line style="stroke:#181818;stroke-width:1.0;" x1="133.5" x2="133.5" y1="553.5859" y2="621.9805"/><polygon fill="#181818" points="129.5,611.9805,133.5,621.9805,137.5,611.9805,133.5,615.9805" style="stroke:#181818;stroke-width:1.0;"/><line style="stroke:#181818;stroke-width:1.0;" x1="133.5" x2="133.5" y1="848.2969" y2="880.2969"/><polygon fill="#181818" points="129.5,870.2969,133.5,880.2969,137.5,870.2969,133.5,874.2969" style="stroke:#181818;stroke-width:1.0;"/><rect fill="none" height="25.1563" style="stroke:none;stroke-width:1.0;" width="149" x="190.5" y="901.2969"/><text fill="#888888" font-family="sans-serif" font-size="10" lengthAdjust="spacing" textLength="96" x="217" y="911.6777">2022.11.04 at 09:53</text><text fill="#888888" font-family="sans-serif" font-size="10" lengthAdjust="spacing" textLength="149" x="190.5" y="924.2559">visualization_architecture.puml</text><!--MD5=[1c9e77c98bdcfc782728398da0fe5c2c]
@startuml visualization_architecture
skinparam titleBorderRoundCorner 15
skinparam titleBorderThickness 2
skinparam titleBorderColor red
skinparam titleBackgroundColor Tomato

title Visualizations\n A generic Dashboard

start

    note right
        Objective: Standardize & automate for rinse & repeat use.
        Using for 1st time? Start with 1 chart and 1 table
    end note

    partition "Load Data" {

        :Prepare and Load Data as 
         Pandas DataFrame (df);

    }

    partition "Prepare Charts" {
        
        :Plan & Prepare charts;

        :Single Selection;
            note right
                Each chart data has multiple dfs. 
                Multiple charts will have dfs redefined.
                No filtering recommended
            end note

        :Multiple Selection;
            note right
                Each chart data has multiple dfs.
                Multiple charts will have dfs redefined.
                No filtering recommended. 
                Utilize dictionary of dfs?
            end note

    }

    partition "Prepare Tables" {
        
        :Plan & Prepare Tables;
            note right
                A div for a table.
                HTML code to be injected.
            end note

    }



    partition "HTML Layout" {


        :Define Layout sections;
            note right
                Provide in order of display
                Default is 1 dropdown with 2 charts
                i.e. ['dropdown', 'graph', 'table']
            end note

        :Configure dropdown (text & selection);
            note right
                text (default is generic)
                select type (single or multiple)
                Options & start_value (data dependent)
            end note

        :Inject Figures into each HTML layout;
            note right
                This is done using update functions
            end note

        :Inject tables into each HTML layout;
            note right
                This is done using update functions?
            end note

    }




stop

footer
%date("yyyy.MM.dd' at 'HH:mm")
%filename()
end footer

@enduml

@startuml visualization_architecture
skinparam titleBorderRoundCorner 15
skinparam titleBorderThickness 2
skinparam titleBorderColor red
skinparam titleBackgroundColor Tomato

title Visualizations\n A generic Dashboard

start

    note right
        Objective: Standardize & automate for rinse & repeat use.
        Using for 1st time? Start with 1 chart and 1 table
    end note

    partition "Load Data" {

        :Prepare and Load Data as 
         Pandas DataFrame (df);

    }

    partition "Prepare Charts" {
        
        :Plan & Prepare charts;

        :Single Selection;
            note right
                Each chart data has multiple dfs. 
                Multiple charts will have dfs redefined.
                No filtering recommended
            end note

        :Multiple Selection;
            note right
                Each chart data has multiple dfs.
                Multiple charts will have dfs redefined.
                No filtering recommended. 
                Utilize dictionary of dfs?
            end note

    }

    partition "Prepare Tables" {
        
        :Plan & Prepare Tables;
            note right
                A div for a table.
                HTML code to be injected.
            end note

    }



    partition "HTML Layout" {


        :Define Layout sections;
            note right
                Provide in order of display
                Default is 1 dropdown with 2 charts
                i.e. ['dropdown', 'graph', 'table']
            end note

        :Configure dropdown (text & selection);
            note right
                text (default is generic)
                select type (single or multiple)
                Options & start_value (data dependent)
            end note

        :Inject Figures into each HTML layout;
            note right
                This is done using update functions
            end note

        :Inject tables into each HTML layout;
            note right
                This is done using update functions?
            end note

    }




stop

footer
2022.11.04 at 09:53
visualization_architecture.puml
end footer

@enduml

PlantUML version 1.2022.8(Sun Sep 25 04:00:33 CDT 2022)
(GPL source distribution)
Java Runtime: OpenJDK Runtime Environment
JVM: OpenJDK 64-Bit Server VM
Default Encoding: UTF-8
Language: en
Country: US
--></g></svg>